<?xml version="1.0" encoding="UTF-8" standalone="no"?>
<!-- Created with Inkscape (http://www.inkscape.org/) -->

<svg
   xmlns:dc="http://purl.org/dc/elements/1.1/"
   xmlns:cc="http://creativecommons.org/ns#"
   xmlns:rdf="http://www.w3.org/1999/02/22-rdf-syntax-ns#"
   xmlns:svg="http://www.w3.org/2000/svg"
   xmlns="http://www.w3.org/2000/svg"
   version="1.1"
   width="512"
   height="512"
   viewBox="0 0 512 512"
   id="Layer_1"
   xml:space="preserve"><metadata
     id="metadata9"><rdf:RDF><cc:Work
         rdf:about=""><dc:format>image/svg+xml</dc:format><dc:type
           rdf:resource="http://purl.org/dc/dcmitype/StillImage" /><dc:title></dc:title></cc:Work></rdf:RDF></metadata><defs
     id="defs7" /><path
     d="m 276.6,275.53309 -18.6,16.6 0,-71.15 c 0,0.005 -0.86685,-0.0113 -1.96686,-0.0113 -1.1,2e-5 -2.03314,0.0113 -2.03314,0.0113 l 0,71.15 -18.6,-16.575 c -1.04888,0.95438 -0.72127,0.63631 -1.49627,1.41131 -0.775,0.775 -0.52669,0.53401 -1.32873,1.41369 0,0 21.75,19.8 22,20 0.25,0.2 0.7,0.6 1.425,0.6 0.725,0 1.225,-0.4 1.425,-0.6 0.2,-0.2 22,-20 22,-20 -0.36806,-0.49485 -0.52761,-0.63634 -1.15082,-1.28119 -0.71323,-0.7197 -0.69513,-0.71349 -1.67418,-1.56881 z"
     id="path3"
     style="fill:#000000" /></svg>