<?xml version="1.0" encoding="UTF-8" standalone="no"?>
<!-- Created with Inkscape (http://www.inkscape.org/) -->

<svg
   xmlns:dc="http://purl.org/dc/elements/1.1/"
   xmlns:cc="http://creativecommons.org/ns#"
   xmlns:rdf="http://www.w3.org/1999/02/22-rdf-syntax-ns#"
   xmlns:svg="http://www.w3.org/2000/svg"
   xmlns="http://www.w3.org/2000/svg"
   xmlns:sodipodi="http://sodipodi.sourceforge.net/DTD/sodipodi-0.dtd"
   xmlns:inkscape="http://www.inkscape.org/namespaces/inkscape"
   width="56.71875"
   height="50.008919"
   id="svg4574"
   version="1.1"
   inkscape:version="0.48.4 r9939"
   sodipodi:docname="red-arrow.svg">
  <defs
     id="defs4576" />
  <sodipodi:namedview
     id="base"
     pagecolor="#ffffff"
     bordercolor="#666666"
     borderopacity="1.0"
     inkscape:pageopacity="0.0"
     inkscape:pageshadow="2"
     inkscape:zoom="11.2"
     inkscape:cx="2.8226229"
     inkscape:cy="34.774297"
     inkscape:document-units="px"
     inkscape:current-layer="layer1"
     showgrid="false"
     inkscape:window-width="1317"
     inkscape:window-height="750"
     inkscape:window-x="49"
     inkscape:window-y="18"
     inkscape:window-maximized="1"
     fit-margin-top="0"
     fit-margin-left="0"
     fit-margin-right="0"
     fit-margin-bottom="0" />
  <metadata
     id="metadata4579">
    <rdf:RDF>
      <cc:Work
         rdf:about="">
        <dc:format>image/svg+xml</dc:format>
        <dc:type
           rdf:resource="http://purl.org/dc/dcmitype/StillImage" />
        <dc:title />
      </cc:Work>
    </rdf:RDF>
  </metadata>
  <g
     inkscape:label="Layer 1"
     inkscape:groupmode="layer"
     id="layer1"
     transform="translate(-555.39103,-768.42919)">
    <path
       id="path3508"
       style="fill:#497149;fill-opacity:1;fill-rule:nonzero;stroke:none"
       d="m 598.13004,808.38229 0,0 c -5.13051,3.07445 -12.20585,7.10374 -17.71308,8.79344 0.51092,-3.12944 0.86646,-6.2364 0.86646,-9.46833 0,-1.1798 -0.0495,-2.38208 -0.15314,-3.60686 l -0.0377,-0.45492 -0.43088,0.035 c -1.16548,0.10238 -2.3192,0.14737 -3.47527,0.14238 -6.01346,0.003 -11.88093,-1.1673 -17.95089,-1.17229 -0.75816,0.006 -1.51631,0.025 -2.28153,0.0624 -0.17424,-3.50438 -0.69459,-6.88129 -0.69223,-10.40316 0,-1.11231 0.0518,-2.23962 0.18139,-3.39191 1.46451,0.0676 2.93609,0.0976 4.41708,0.0976 4.16986,0 8.41743,-0.20995 12.83452,-0.20995 2.80188,0 5.68381,0.0824 8.65522,0.36244 l 0.44736,0.0374 0.0236,-0.47241 c 0.31315,-6.20142 0.70165,-12.74276 1.42919,-18.66922 4.64313,3.55937 9.20619,8.24606 13.77632,12.25284 3.54592,3.10446 9.27212,10.05824 12.97343,14.74991 -2.77834,3.78684 -10.24454,9.75828 -12.86982,11.3155 m 13.75748,-11.62795 0,0 c -3.71074,-4.70667 -9.57585,-11.8779 -13.31013,-15.15483 -4.72553,-4.13427 -9.48637,-9.0659 -14.41204,-12.74276 l -0.58627,-0.42742 -0.0964,0.74487 c -0.76993,6.03144 -1.18433,12.70026 -1.5069,19.03165 -2.84661,-0.24495 -5.60141,-0.31745 -8.28086,-0.31745 -4.44299,0 -8.68819,0.20497 -12.83451,0.20497 -1.60578,0 -3.19744,-0.03 -4.77497,-0.11757 l -0.40028,-0.0199 -0.054,0.41992 c -0.17423,1.34227 -0.24016,2.65204 -0.24016,3.93432 0.002,3.77434 0.57215,7.3137 0.71578,10.91307 l 0.017,0.46742 0.445,-0.03 c 0.89001,-0.0574 1.78002,-0.0824 2.66768,-0.0824 5.96166,-0.003 11.83383,1.16729 17.95089,1.17229 1.03363,0 2.06728,-0.04 3.11268,-0.11235 0.0731,1.03483 0.11302,2.05964 0.11302,3.06947 0,3.4044 -0.39792,6.67382 -0.97477,10.01824 l -0.1247,0.71237 0.66633,-0.18497 c 5.76623,-1.60472 13.21595,-5.85896 18.57719,-9.0659 2.84427,-1.7122 10.55769,-7.86362 13.34779,-11.86291 l 0.20486,-0.29245 -0.22133,-0.27745 z m -14.27784,-9.38835 0,0 c -0.95829,-1.15229 -1.89775,-2.29459 -2.7595,-3.35441 -0.054,-0.0874 -0.10836,-0.16497 -0.16481,-0.25495 1.19609,1.31477 2.35451,2.68203 3.50823,4.06179 -0.20013,-0.15498 -0.40498,-0.31994 -0.58392,-0.45243 m 2.32156,6.77131 0,0 c -0.78641,-1.17729 -1.5375,-2.45706 -2.32156,-3.70184 0.55568,0.62988 1.10898,1.25978 1.65524,1.88467 0.22367,0.59989 0.43558,1.21229 0.66632,1.81717 m 0.1554,1.7522 0,0 c 0.4709,0.63489 0.96771,1.22978 1.49748,1.77218 -0.017,0.0104 -0.0282,0.025 -0.0449,0.035 -0.0588,0.018 -0.11772,0.0426 -0.17423,0.0676 l -0.14598,-0.17497 c -0.27312,0.14997 -0.54861,0.29744 -0.82409,0.44742 -0.40262,-0.89734 -0.83349,-1.78219 -1.35856,-2.59204 0.38144,0.22996 0.70401,0.42992 0.94417,0.5974 l 0.1059,-0.15238 z m 2.82779,0.70738 0,0 c 0.0282,0.035 0.0565,0.07 0.0825,0.0974 -0.22132,0.14259 -0.445,0.28496 -0.65926,0.42993 -0.58864,-0.79486 -1.03364,-1.81468 -1.45039,-2.92449 0.69694,0.80987 1.37033,1.61222 2.02724,2.39708 m 1.82711,-1.0923 0,0 c -0.97005,-1.00733 -2.12613,-2.2896 -3.35519,-3.69185 1.38917,1.31226 2.68651,2.73452 3.35519,3.69185 m 0.43795,0.77986 0,0 -0.52506,-0.62988 c -0.006,0.006 -0.009,0.0104 -0.0151,0.0104 l 0.11302,-0.14497 c 0.21661,0.31244 0.36259,0.57489 0.42617,0.76486 m 0.0613,0.38244 0,0 c 0.0132,0.17496 -0.0377,0.35493 -0.14598,0.5449 l 0.0635,-0.25246 -0.82409,0.40992 c -0.0213,0.0104 -0.0353,0.0199 -0.0518,0.0251 0.32727,-0.32744 0.63808,-0.66989 0.91827,-1.03232 0.0307,0.10759 0.0401,0.20996 0.0401,0.30495 m -1.94955,-0.14758 0,0 0.40027,-0.37493 c -0.28019,-0.34744 -0.57215,-0.70487 -0.87353,-1.07481 0.40263,0.34994 0.80054,0.68238 1.19139,0.99982 -0.2331,0.14258 -0.47326,0.29246 -0.71813,0.44992 m -0.28489,2.52956 0,0 c -0.88296,0.60489 -1.85066,1.1648 -2.4652,1.93216 l -0.1107,-0.32744 c 0.76758,-0.63989 1.5846,-1.26978 2.37101,-1.92217 0.26606,-0.0199 0.55332,-0.0599 0.87588,-0.13757 -0.2119,0.15237 -0.43794,0.30245 -0.67104,0.45492 m -3.00437,2.97198 0,0 -0.19542,0.79486 c -0.55568,0.40243 -1.12782,0.79236 -1.71175,1.17729 l -0.44265,-0.75737 c -0.75108,0.36244 -1.50453,0.75737 -2.25798,1.1673 0.69694,-0.53241 1.3562,-1.09731 1.96839,-1.68971 0.35788,-0.15497 0.71342,-0.31744 1.06659,-0.47741 l 0.13901,0.15757 c 0.15785,-0.14237 0.31079,-0.28495 0.45207,-0.42493 0.4144,-0.19256 0.82644,-0.37742 1.23613,-0.5724 -0.10836,0.19498 -0.19543,0.39993 -0.25429,0.6249 m -4.0592,-2.73452 0,0 c 0.38614,-0.0574 0.77464,-0.11739 1.15842,-0.17497 l -0.0189,-0.6099 c 0.37909,-0.26995 0.73932,-0.5374 1.08309,-0.79236 l 0.68988,0.065 -0.3061,-0.43993 0.20485,-0.15496 c -0.33671,-0.74237 -0.71343,-1.46475 -1.13253,-2.15963 0.18365,0.21496 0.35788,0.44493 0.52035,0.68489 0.4662,0.93233 0.93004,1.86466 1.40566,2.792 -0.54861,0.23496 -1.09958,0.48242 -1.65053,0.74738 l -0.14128,-0.32745 c -0.9724,0.42493 -1.96131,0.79986 -2.95963,1.1023 0.39086,-0.23745 0.77464,-0.48741 1.14665,-0.73236 m -0.87117,-8.28855 0,0 c -0.21426,-0.43991 -0.42381,-0.87485 -0.63572,-1.30477 0.35318,0.44992 0.71107,0.90484 1.07366,1.35726 l -0.43794,-0.0526 z m 0.29432,0.34744 0,0 0.25664,-0.15237 c 0.17197,0.20997 0.33905,0.41992 0.50857,0.62988 -0.25428,-0.16497 -0.50857,-0.32243 -0.76521,-0.47741 m -0.0942,3.18694 0,0 c -0.0942,-0.52741 -0.19306,-1.06481 -0.30138,-1.59722 0.0213,0.0104 0.0471,0.03 0.0682,0.045 0.26135,0.54241 0.53447,1.07981 0.82407,1.60222 -0.19542,-0.014 -0.3932,-0.035 -0.59098,-0.05 m 1.29263,3.15945 0,0 c -0.13655,0.0924 -0.27312,0.17496 -0.40968,0.26744 -0.0989,-0.03 -0.19542,-0.0526 -0.29197,-0.0824 -0.009,-0.045 -0.017,-0.0924 -0.026,-0.13757 0.24958,-0.016 0.4921,-0.0326 0.72755,-0.0474 m -0.16237,-1.25978 0,0 c 0.12714,-0.1026 0.259,-0.20497 0.38614,-0.30745 0.0731,0.10238 0.14372,0.20496 0.21426,0.30745 0.0495,0.10736 0.0989,0.20995 0.14843,0.30745 -0.18139,0.006 -0.36965,0.016 -0.56038,0.03 l 0.0329,-0.29995 c -0.0729,-0.0104 -0.14843,-0.0226 -0.22132,-0.0375 m -2.22267,-1.95215 0,0 c -0.24487,-0.67988 -0.47797,-1.38226 -0.69458,-2.08464 0.1343,-0.07 0.26841,-0.13757 0.40026,-0.20746 0.0151,0.0104 0.0282,0.025 0.0449,0.035 0.16237,0.74238 0.3108,1.50475 0.44736,2.25962 -0.0635,0 -0.12958,0 -0.19778,-0.002 m -0.9112,7.64365 0,0 -0.18836,0 c 0.1296,-0.0474 0.25665,-0.10759 0.3885,-0.15997 -0.0682,0.0526 -0.13412,0.11258 -0.20014,0.15997 m -2.13319,3.9593 0,0 c 0.5745,-0.40992 1.17255,-0.78486 1.78708,-1.1423 0.04,-0.006 0.0824,-0.0104 0.1247,-0.016 l 0.0329,0 c -0.63573,0.40493 -1.28558,0.79736 -1.94484,1.15729 m -5.31652,4.43422 0,0 c 0.0518,-0.075 0.10591,-0.14737 0.16237,-0.22485 1.98957,-0.72238 3.92499,-1.74469 5.82039,-2.80702 -1.96133,1.20479 -4.01211,2.25461 -5.98285,3.03198 m -0.27312,-8.32105 0,0 c -0.52742,0.68489 -0.85705,1.46475 -1.03129,2.29461 0.0236,-1.03982 0.066,-2.06964 0.1247,-3.06446 0.25429,0.025 0.51093,0.0526 0.76993,0.0676 0.066,0.12738 0.1601,0.24497 0.27548,0.33744 -0.0496,0.12238 -0.0964,0.24497 -0.13901,0.36494 m -1.10192,8.82345 0,0 c 0.0236,-1.34227 0.0258,-2.75452 0.0401,-4.17927 0.087,0.51242 0.22368,1.02982 0.42853,1.54223 0.0637,0.47242 0.17894,0.95233 0.33434,1.41975 -0.29667,0.39743 -0.55802,0.80236 -0.80289,1.21729 m 1.66465,-7.60616 0,0 c 0.0282,-0.14238 0.0637,-0.28995 0.10356,-0.42993 l 0.14126,0.003 0.0682,0 -0.23075,0.31244 c -0.0282,0.0373 -0.0565,0.0776 -0.0825,0.11235 m 0.34847,2.85449 0,0 c -0.0402,0.47992 -0.13657,0.95234 -0.28725,1.41227 -0.092,-0.42993 -0.16256,-0.86986 -0.2072,-1.30978 l 0.0329,-0.0104 c 0.15539,-0.0274 0.31079,-0.0574 0.46149,-0.0924 m -2.38749,-6.51136 0,0 c 0.82407,-0.19496 1.56104,-0.42493 2.16381,-0.71237 l -0.0588,-0.20997 c 0.43794,0.0425 0.87823,0.0824 1.3256,0.11235 -0.23781,0.16497 -0.49916,0.30744 -0.78641,0.39993 l -0.35319,-0.26496 c -0.16952,0.27996 -0.35317,0.51741 -0.51328,0.74738 -0.37437,0.0676 -0.74167,0.14757 -1.10897,0.21996 l 0.0329,-0.39993 -0.5486,0.0874 c -0.0495,0.0104 -0.10111,0.016 -0.15295,0.0199 m -6.02052,-0.82486 0,0 -0.0113,-0.38244 c -1.5117,-0.10736 -3.0492,-0.21745 -4.59377,-0.28245 1.54457,-0.0574 3.08913,-0.13737 4.58426,-0.24744 1.43155,0.12996 2.87016,0.16996 4.30878,0.16996 l 0.6522,0 c 0.29196,0.0924 0.59334,0.17496 0.89707,0.24746 -1.70467,0.19256 -3.76017,0.36244 -5.83686,0.49491 m -9.50757,1.31727 0,0 c -1.78002,-0.0976 -3.3599,-0.20497 -4.59838,-0.30744 0.84056,-0.21497 1.6929,-0.38494 2.55466,-0.50742 0.77463,0.24495 1.71408,0.44492 2.76656,0.6049 l 0.008,0.0976 c 0.23075,0.003 0.47797,0.003 0.73697,0.0104 0.84527,0.10759 1.74705,0.18997 2.67945,0.25495 -1.38211,-0.03 -2.76657,-0.08 -4.14632,-0.15237 m -5.20114,-1.82467 0,0 c 0.96536,-0.003 1.98251,-0.003 3.03263,-0.014 -0.0471,0.0104 -0.0964,0.0199 -0.14128,0.0326 l -1.61285,0.34243 0.0776,0.025 c -0.38614,0.0776 -0.76521,0.16496 -1.14665,0.26745 -0.0612,-0.21997 -0.12959,-0.43242 -0.20955,-0.65238 m -0.56037,-1.48475 0,0 c 0.0611,-0.21496 0.12243,-0.43492 0.17649,-0.64988 0.77228,0.24996 1.61521,0.46992 2.51699,0.64988 -0.86648,0.13758 -1.70468,0.30245 -2.50757,0.48742 -0.0635,-0.16497 -0.12715,-0.33244 -0.18591,-0.48742 m -0.90179,2.77202 0,0 c -0.0402,-0.43992 -0.066,-0.99983 -0.0825,-1.66471 l 0.50385,0.0974 c 0.22133,0.56739 0.42383,1.1098 0.50858,1.58221 l 0.0189,0.10759 c -0.37436,-0.045 -0.70164,-0.0824 -0.94887,-0.12237 m 2.6253,-4.79416 0,0 c -0.0518,0.016 -0.10356,0.025 -0.15295,0.035 0.0282,-0.016 0.0588,-0.025 0.0895,-0.04 0.0213,0.006 0.0424,0.006 0.0635,0.006 m 10.74605,1.29478 0,0 c -2.19912,0.0199 -4.37236,0.11738 -6.44905,0.31245 -1.47157,-0.16998 -2.87722,-0.39993 -4.12512,-0.70238 1.64817,-0.34744 3.67777,-0.43992 5.74033,-0.43493 1.62462,0 3.27043,0.0474 4.78203,0.0624 l 0.0518,0.76237 z m -13.36899,-3.54437 0,0 c 4.53246,-0.0104 9.77128,-0.12758 14.79818,-0.13238 -2.91489,0.03 -5.99932,0.15236 -8.59166,0.5324 -1.32324,0.20997 -2.52876,0.45492 -3.52,0.80486 -0.27313,0.0199 -0.49916,0.04 -0.67341,0.065 l 0,0.20496 c -0.18365,0.0824 -0.36023,0.17497 -0.5274,0.26746 0.0542,-0.28245 0.10133,-0.57991 0.14372,-0.88236 l -0.81703,-0.26995 c -0.40497,0.91235 -0.50622,1.59722 -0.68281,2.40208 l -0.2119,0.014 c 0.017,-0.90235 0.0424,-1.90467 0.0825,-3.00698 m 15.89069,1.49474 0,0 c -0.14354,0.0276 -0.29197,0.0526 -0.43088,0.0825 -0.1059,-0.016 -0.21662,-0.035 -0.32257,-0.05 0.25428,-0.0104 0.50151,-0.025 0.75345,-0.0326 m 4.26875,1.78968 0,0 c -0.32963,0.10736 -0.64279,0.21997 -0.93945,0.34245 -0.9371,-0.035 -1.88127,-0.0624 -2.82543,-0.0776 1.21022,-0.06 2.48166,-0.17238 3.76488,-0.26496 m 4.2664,-0.0576 0,0 c -0.006,0.14758 -0.008,0.29245 -0.0113,0.43993 -0.68045,0.0374 -1.35855,0.0824 -2.02488,0.11234 -0.17895,-0.0104 -0.36024,-0.0199 -0.53919,-0.03 0.8076,-0.20497 1.67642,-0.37994 2.57585,-0.52241 m 0.0132,-1.49474 0,0 0,0.003 c -1.56812,0.0877 -3.18332,0.11759 -4.79381,0.18997 1.55633,-0.12998 3.18096,-0.18497 4.79381,-0.19496 m -0.11999,-1.95216 0,0 c 0.0424,-0.10237 0.08,-0.19997 0.11999,-0.30245 l 0,0.13238 0,1.19978 -0.16953,0 c 0.0236,-0.003 0.0496,-0.0104 0.0706,-0.0104 l -0.10824,-0.82986 0.087,-0.18996 z m 1.38446,1.03481 0,0 c -0.13186,0 -0.26135,-0.006 -0.3932,-0.006 0,-0.39993 -0.006,-0.79986 -0.006,-1.19979 0,-0.94734 0.008,-1.90467 0.0377,-2.847 0.0542,1.41475 0.16481,2.78701 0.36023,4.05178 m 0.23546,-15.62724 0,0 -0.0495,0.37493 c -0.10133,0.78237 -0.20013,1.6997 -0.2849,2.68702 -0.11301,-1.18228 -0.25193,-2.35957 -0.39085,-3.51188 0.24958,0.14258 0.48503,0.29995 0.7252,0.44993 m 0.26841,17.97684 0,0 c 0.0329,0.10492 0.0636,0.20495 0.092,0.31244 l 0.0258,0.0676 c -0.16237,0.014 -0.32492,0.0199 -0.48739,0.03 0.08,-0.13757 0.1554,-0.27995 0.22132,-0.41992 0.0495,0.006 0.0989,0.0104 0.14843,0.0104 m 0.12245,-13.0852 0,0 c 0.0848,-0.25246 0.17648,-0.50741 0.27548,-0.75236 0.002,0.48991 0.0258,0.99232 0.066,1.50473 0.0132,0.99982 0.0424,2.08463 0.0424,3.20194 0,1.6947 -0.0706,3.45689 -0.34375,5.11159 -0.13657,-1.40975 -0.19544,-2.93948 -0.19544,-4.4667 0,-1.56723 0.0635,-3.13445 0.15541,-4.5992 m 0.34376,-3.75934 0,0 c 0.51328,0.30745 1.02657,0.74237 1.5328,1.27478 l -0.67331,0.23495 c 0.017,-0.18495 0.0424,-0.36743 0.0706,-0.5374 l -0.79112,-0.33244 c -0.0872,0.14237 -0.17423,0.28245 -0.25665,0.43492 0.0353,-0.37493 0.08,-0.73737 0.11774,-1.07481 m 1.6411,8.68097 0,0 c -0.009,0.0676 -0.017,0.13238 -0.0258,0.19497 -0.0213,-0.31245 -0.0377,-0.61989 -0.054,-0.90734 0.0282,0.23745 0.054,0.47741 0.08,0.71237 m 1.15372,-5.92145 0,0 c -0.30608,0.0574 -0.45678,0.23245 -0.56272,0.42992 -0.16727,-0.69488 -0.36496,-1.30977 -0.591,-1.80219 0.38615,0.40994 0.77229,0.87486 1.15372,1.37227 m 0.0258,3.08945 0,0 c 0.0518,-0.43992 0.1107,-0.84985 0.17423,-1.19478 0.26842,0.29744 0.53919,0.59989 0.80996,0.90234 l -0.27548,0.5424 c -0.16952,-0.14757 -0.33435,-0.28994 -0.4968,-0.40493 l -0.22604,0.27245 c 0.003,-0.04 0.009,-0.0776 0.0132,-0.11758 m 0.26135,-1.60222 0,0 c 0.0496,-0.19996 0.10356,-0.35993 0.15295,-0.45241 0.0151,-0.035 0.0282,-0.0599 0.0401,-0.0724 l 0.17649,-0.085 c 0.16483,0.22996 0.32729,0.45991 0.48975,0.69488 -0.14354,-0.14758 -0.2849,-0.29495 -0.42146,-0.43492 l -0.47326,0.5074 c 0.009,-0.0576 0.0235,-0.1026 0.0354,-0.15757 m 0.49446,-2.05463 0,0 -0.0446,0.05 c -0.087,-0.11235 -0.17894,-0.21997 -0.26607,-0.33245 0.10356,0.0924 0.20956,0.18497 0.31081,0.28245 m -0.83822,19.25911 0,0 c -0.69223,0.035 -1.38211,0.08 -2.06492,0.11235 0.22133,-0.14998 0.45207,-0.29246 0.68752,-0.43492 0.74874,-0.10759 1.49984,-0.20497 2.24857,-0.30745 -0.30373,0.19496 -0.59098,0.40493 -0.87117,0.62989 m -0.81702,3.3994 0,0 c 0.41204,-0.07 0.82173,-0.14238 1.22906,-0.20996 -0.0942,0.10237 -0.18365,0.20996 -0.27076,0.31244 -0.31787,-0.025 -0.6428,-0.0599 -0.9583,-0.10261 m 0.18365,2.19711 0,0 0.20014,0.19498 c -0.48033,0.25745 -0.97007,0.50241 -1.45275,0.73236 0.40499,-0.31744 0.82174,-0.62489 1.25261,-0.92734 m -2.32627,-7.97359 0,0 c -0.12243,-0.003 -0.24958,-0.0104 -0.36965,-0.014 0.13185,-0.006 0.26135,-0.016 0.39085,-0.0199 -0.008,0.016 -0.0113,0.025 -0.0213,0.035 m -0.27313,6.17141 0,0 c 0.49681,0.15997 1.00302,0.28245 1.50925,0.38493 -0.51563,0.11739 -1.02892,0.23996 -1.53279,0.35744 0.0189,-0.18237 0.0258,-0.37243 0.0258,-0.5574 0,-0.0624 0,-0.12239 -0.002,-0.18497 m 3.5412,-15.57476 0,0 c 0.0471,0.21997 0.0989,0.43993 0.1507,0.65989 l -0.1247,0.18996 c -0.009,-0.27745 -0.017,-0.5649 -0.026,-0.84985 m 0.0282,2.25211 0,0 c 0.19307,0.0773 0.3885,0.15997 0.591,0.24745 0.0588,0.21496 0.11772,0.43993 0.1859,0.66488 0,0.025 0,0.05 0.002,0.0776 -0.25429,0.11738 -0.51564,0.23996 -0.77699,0.35245 -0.0132,-0.0924 -0.0282,-0.17997 -0.0353,-0.27246 0.0132,-0.34743 0.0258,-0.70987 0.0329,-1.06981 m -1.2479,-0.46991 0,0 c 0.0471,0.0199 0.0964,0.03 0.14353,0.045 0.0635,0.5174 0.1296,1.03481 0.19778,1.53722 -0.009,0.21996 -0.0236,0.42993 -0.0401,0.63989 -0.0236,0.0104 -0.0449,0.0199 -0.0659,0.03 -0.08,-0.74237 -0.1554,-1.49473 -0.23546,-2.2521 m -1.02892,-8.63598 0,0 c 0,-0.30744 0.008,-0.61489 0.0282,-0.90234 0.16707,1.1173 0.33669,2.52456 0.51093,4.05178 -0.0189,0.04 -0.0353,0.0724 -0.0518,0.0974 -0.0354,0.0576 -0.0682,0.0924 -0.0848,0.10759 l 0,-0.006 c -0.10356,-0.70238 -0.22133,-1.40475 -0.35317,-2.09963 l -0.0113,0 c -0.0235,-0.42993 -0.0377,-0.84986 -0.0377,-1.24979 m 0.0377,16.18966 0,0 c 0.75816,-0.025 1.5116,-0.045 2.26034,-0.055 l 0.017,-0.5274 c 0.0402,0.14757 0.0778,0.28995 0.11546,0.42493 l 0.0541,0.19496 c -0.0377,0.0199 -0.0753,0.04 -0.11303,0.0599 -0.38849,0.006 -0.77699,0.006 -1.16549,0.006 -0.40968,0 -0.81466,0 -1.21493,-0.006 0.0151,-0.035 0.0307,-0.07 0.0471,-0.0974 m 0.60041,1.02482 0,0 c -0.12244,0.0676 -0.24252,0.13757 -0.36025,0.20996 -0.43794,0.0624 -0.86882,0.12757 -1.3044,0.18997 0.14598,-0.13258 0.28254,-0.26746 0.40968,-0.41993 0.41675,0.0104 0.8335,0.0199 1.25497,0.0199 m -0.89708,-3.06696 0,0 c 0.0258,0.003 0.0541,0.003 0.0729,0.0104 -0.0132,0.07 -0.0282,0.13238 -0.0446,0.19497 -0.0424,0.0104 -0.0847,0.0104 -0.1247,0.0104 0.0329,-0.0724 0.066,-0.13997 0.0964,-0.21496 m -0.17423,-2.53706 0,0 c -0.0424,0.0199 -0.08,0.0326 -0.12243,0.0526 0.0989,-0.38493 0.18365,-0.76987 0.25664,-1.17229 -0.0307,0.38243 -0.0731,0.75737 -0.13411,1.1198 m -1.39152,7.19623 0,0 c -0.0236,-0.04 -0.0446,-0.085 -0.0682,-0.12237 0.13431,-0.025 0.26607,-0.045 0.40263,-0.065 -0.08,0.0599 -0.1554,0.12258 -0.23074,0.18257 -0.0377,0.003 -0.0682,0.003 -0.10356,0.003 m 0.34848,5.34906 0,0 c 0.56508,-0.12997 1.13488,-0.26745 1.70937,-0.39992 -0.70871,0.48241 -1.39623,0.98233 -2.05314,1.48973 0.13901,-0.35744 0.25665,-0.72237 0.34377,-1.08981 m 4.41943,-10.35317 0,0 0,0.003 c -0.0424,0.0104 -0.087,0.018 -0.1247,0.0226 -0.002,-0.0104 -0.003,-0.0121 -0.008,-0.0274 l 0.13186,0 z m -0.21662,-1.1423 0,0 -0.0775,-0.83485 c -0.0565,0 -0.11302,-0.006 -0.17424,-0.0104 -0.0213,-0.14257 -0.0424,-0.28494 -0.0635,-0.42492 0.23309,-0.10238 0.46619,-0.20496 0.69694,-0.30744 0,0.13498 0.003,0.27245 0.002,0.41492 0.002,0.38993 -0.009,0.77487 -0.0376,1.1573 -0.11773,0 -0.23074,0.003 -0.34612,0.003 m 0.445,-6.57635 0,0 c -0.13184,-0.39493 -0.27783,-0.77236 -0.43558,-1.1098 l -0.58627,0.20997 c -0.0307,-0.38994 -0.066,-0.77487 -0.10591,-1.1548 0.4356,0.53991 0.92533,1.1598 1.44804,1.82968 l -0.32021,0.22495 z m 0.32729,9.43584 0,0 -0.0354,0.20997 c -0.0377,0.0199 -0.0706,0.04 -0.11059,0.0599 0.0329,-0.09 0.0613,-0.18257 0.0895,-0.26995 l 0.0565,0 z m -0.1814,-8.96342 0,0 c 0.27077,0.5324 0.50387,1.1423 0.71107,1.79218 l -0.008,0.006 c -0.11037,-0.0576 -0.21878,-0.12239 -0.33181,-0.18497 -0.1011,-0.56241 -0.22368,-1.1048 -0.37201,-1.61222 m 13.77161,8.13357 0,0 c -0.11059,0.17237 -0.24723,0.33244 -0.36966,0.49741 0.0213,-0.10237 0.0377,-0.21496 0.0424,-0.32494 0,-0.17237 -0.0329,-0.34744 -0.0753,-0.51991 0.13656,0.11235 0.26607,0.23496 0.40262,0.34744 m -19.69088,-20.31393 -0.72048,-0.37493 0.0964,0.84985 c 0.31079,2.61954 0.68046,5.32906 0.6781,7.9711 0,0.0624 -0.003,0.12238 -0.003,0.17997 -0.25193,1.39225 -0.37436,2.832 -0.43087,4.27175 -0.19307,0.91984 -0.4662,1.81718 -0.83585,2.69452 -2.58527,-0.12498 -5.42248,-0.16497 -8.34679,-0.16497 -5.34948,0 -10.96503,0.13758 -15.72587,0.13758 l -0.4144,0 -0.0189,0.44242 c -0.0706,1.87467 -0.11303,3.49689 -0.11303,4.83415 0,1.36225 0.0424,2.41207 0.13657,3.15445 l 0.0449,0.32743 0.30374,0.0624 c 1.01479,0.20495 3.68247,0.41492 7.09653,0.59989 2.02725,0.11757 4.06862,0.18497 6.10999,0.18497 2.89136,0 5.78742,-0.15498 8.67407,-0.54991 l 0.0113,0.44492 c 0.1601,0.0276 0.32021,0.0476 0.48268,0.0724 -0.2284,3.71435 -0.12715,7.82612 -0.23545,11.22303 l -0.0258,0.80986 0.66868,-0.38994 c 6.05819,-3.54437 18.79617,-9.17339 23.2156,-16.32462 l 0.22368,-0.36243 -0.33198,-0.25747 c -7.42617,-5.78648 -11.629,-15.13483 -20.53851,-19.8365"
       inkscape:connector-curvature="0"
       inkscape:export-filename="/home/danielson/Desktop/arrows/red-arrow.png"
       inkscape:export-xdpi="90"
       inkscape:export-ydpi="90" />
  </g>
</svg>
